<svg xmlns="http://www.w3.org/2000/svg" xmlns:xlink="http://www.w3.org/1999/xlink" viewBox="0 0 25.56 14.99"><defs><style>.cls-1{fill:url(#Orange_Yellow);}.cls-2{fill:url(#linear-gradient);}.cls-3{fill:url(#linear-gradient-2);}.cls-4{fill:url(#linear-gradient-3);}.cls-5{fill:url(#linear-gradient-4);}.cls-6{fill:url(#linear-gradient-5);}.cls-7{fill:url(#linear-gradient-6);}.cls-8{fill:url(#Orange_Yellow-2);}</style><linearGradient id="Orange_Yellow" x1="1.74" y1="7.5" x2="15.31" y2="7.5" gradientUnits="userSpaceOnUse"><stop offset="0" stop-color="#ffef26"/><stop offset="0.02" stop-color="#ffea21"/><stop offset="0.1" stop-color="#fed70f"/><stop offset="0.19" stop-color="#fdcc04"/><stop offset="0.28" stop-color="#fdc800"/><stop offset="0.67" stop-color="#f18f34"/><stop offset="0.89" stop-color="#e95f32"/><stop offset="1" stop-color="#e3312d"/></linearGradient><linearGradient id="linear-gradient" y1="11.9" x2="2.94" y2="11.9" gradientUnits="userSpaceOnUse"><stop offset="0" stop-color="#08314d"/><stop offset="0.47" stop-color="#093350" stop-opacity="0.98"/><stop offset="0.64" stop-color="#0b3a5a" stop-opacity="0.89"/><stop offset="0.77" stop-color="#10466d" stop-opacity="0.73"/><stop offset="0.86" stop-color="#165887" stop-opacity="0.51"/><stop offset="0.95" stop-color="#1e6ea8" stop-opacity="0.23"/><stop offset="1" stop-color="#2581c4" stop-opacity="0"/></linearGradient><linearGradient id="linear-gradient-2" x1="2.14" y1="11.88" x2="6.33" y2="11.88" xlink:href="#linear-gradient"/><linearGradient id="linear-gradient-3" x1="4.81" y1="11.97" x2="9.46" y2="11.97" xlink:href="#linear-gradient"/><linearGradient id="linear-gradient-4" x1="8.27" y1="11.97" x2="12.92" y2="11.97" xlink:href="#linear-gradient"/><linearGradient id="linear-gradient-5" x1="13.18" y1="11.88" x2="17.38" y2="11.88" xlink:href="#linear-gradient"/><linearGradient id="linear-gradient-6" x1="16.77" y1="12.03" x2="25.56" y2="12.03" xlink:href="#linear-gradient"/><linearGradient id="Orange_Yellow-2" x1="11.95" y1="7.5" x2="22.91" y2="7.5" xlink:href="#Orange_Yellow"/></defs><g id="Layer_2" data-name="Layer 2"><g id="Layer_1-2" data-name="Layer 1"><path class="cls-1" d="M1.74,15l5-15h3.67l4.89,15H11.93L11,11.87H6L5.1,15Zm5-5.76h3.59L8.77,4c-.06-.21-.11-.39-.14-.54a3.12,3.12,0,0,1-.09-.56H8.46a4.82,4.82,0,0,1-.1.54A4.43,4.43,0,0,1,8.22,4Z"/><path class="cls-2" d="M.29,10.8a3.6,3.6,0,0,1,.49-.37A7,7,0,0,1,1.49,10a3.23,3.23,0,0,1,.73-.26.57.57,0,0,1,.5.09.36.36,0,0,1,.06.38,1.92,1.92,0,0,1-.19.48c-.1.17-.18.31-.26.43l-.05.07s0,0,.05,0h0a4.44,4.44,0,0,1,.52-.15s.06,0,.07,0,0,0-.06.05a4.42,4.42,0,0,0-.48.15l-.14,0a.26.26,0,0,0-.13.1l-.31.49q-.65,1-1.23,2a.16.16,0,0,0,0,.07c0,.07,0,.1-.13.06a2,2,0,0,1,.28-.6c.19-.33.41-.68.64-1.05l.56-.86L2,11.48s0,0-.1,0l-.33.11-.37.14-.26.1h0l0,0h0c0,.05-.23.15-.29.12s.21-.23.28-.26Q1.39,11.5,2,11.3a.21.21,0,0,0,.14-.1c.18-.26.7-1,.48-1.29a.53.53,0,0,0-.46-.05,3.38,3.38,0,0,0-.68.28,6.34,6.34,0,0,0-.67.42,2.73,2.73,0,0,0-.44.36.7.7,0,0,0-.23.35c0,.11.06.19.23.27s.08,0,.1,0,0,0,0,0,.07.08.05.12,0,.05-.09,0C-.1,11.55-.14,11.23.29,10.8Z"/><path class="cls-3" d="M2.17,12.62a2.34,2.34,0,0,1,.37-.77A5.57,5.57,0,0,1,3.22,11a7.11,7.11,0,0,1,.85-.71A3.67,3.67,0,0,1,5,9.88a1.18,1.18,0,0,1,.76,0,.82.82,0,0,1,.51.52,1.58,1.58,0,0,1,0,1,2.77,2.77,0,0,1-.44.92,4.48,4.48,0,0,1-.78.79,5.64,5.64,0,0,1-.91.59,3.27,3.27,0,0,1-.89.31,1,1,0,0,1-.66,0,.5.5,0,0,1-.28-.47v-.09s0,0,0-.05l-.05-.06A.65.65,0,0,1,2.17,12.62ZM5.56,10a1.51,1.51,0,0,0-.84.17,4.16,4.16,0,0,0-.95.6,6,6,0,0,0-.84.83,3.48,3.48,0,0,0-.55.85.85.85,0,0,0,0,.67c0,.08.06,0,.09,0l0,0a3.13,3.13,0,0,1,.47-.61,2.15,2.15,0,0,1,.6-.47c.08,0,.14,0,.17,0s0,.09,0,.15-.08.06-.12,0v0s0,0,0,0h0a2.76,2.76,0,0,0-.5.44,2.62,2.62,0,0,0-.41.53l0,0c-.06.08-.06.12.06.15h0a1.14,1.14,0,0,0,.33.05c.08,0,.09.07,0,.08a1.28,1.28,0,0,1-.4,0h0c-.06,0-.07,0-.06.06a.41.41,0,0,0,.37.39,1.63,1.63,0,0,0,.8-.11,4.74,4.74,0,0,0,1-.52,4.62,4.62,0,0,0,.91-.8,2.84,2.84,0,0,0,.58-1,1.49,1.49,0,0,0,0-1A.65.65,0,0,0,5.56,10Z"/><path class="cls-4" d="M6.06,10.83a1.4,1.4,0,0,1,.28-.32c.12-.09.21-.17.29-.22l.31-.18a1.94,1.94,0,0,1,.42-.17.67.67,0,0,1,.39,0c.12,0,.19.11.22.26a1.38,1.38,0,0,1-.17.67,8,8,0,0,1-.48.9c-.2.31-.37.59-.54.84s-.17.26-.22.35-.07.13.06.07c.6-.25,2.51-1,2.83-.27h0s0,.08,0,.09-.06,0-.07-.05A.41.41,0,0,0,9,12.53a1.68,1.68,0,0,0-.62,0,5.37,5.37,0,0,0-.74.19L7,13l-.45.2a.45.45,0,0,0-.27.23s0,0,0,0l-.05.08-.06.1c0,.07-.12,0-.07-.06l.06-.1,0-.05v0l0-.07-.09,0a9.76,9.76,0,0,0-.91.47s-.06,0-.07.08a.31.31,0,0,1-.2.11.1.1,0,0,1-.1,0c0-.06,0-.14.08-.17a12.66,12.66,0,0,1,1.27-.65c.15-.07.16-.07.21-.17l0-.08s.08-.14.17-.27L7,12c.16-.26.31-.53.46-.8a4.42,4.42,0,0,0,.33-.73.54.54,0,0,0,0-.45q-.11-.1-.36,0a2.2,2.2,0,0,0-.55.25,3.07,3.07,0,0,0-.52.39.71.71,0,0,0-.26.34s0,0,0,.06h0c0,.12-.1.2-.14.1A.34.34,0,0,1,6.06,10.83Z"/><path class="cls-5" d="M9.51,10.83a1.45,1.45,0,0,1,.29-.32,3.19,3.19,0,0,1,.29-.22l.3-.18a2.47,2.47,0,0,1,.42-.17.7.7,0,0,1,.4,0c.11,0,.18.11.21.26a1.25,1.25,0,0,1-.16.67,6.74,6.74,0,0,1-.49.9l-.53.84-.23.35c-.08.13-.06.13.06.07.6-.25,2.52-1,2.83-.27h0s0,.08,0,.09-.06,0-.07-.05a.41.41,0,0,0-.36-.24,1.73,1.73,0,0,0-.63,0,5.25,5.25,0,0,0-.73.19c-.25.08-.48.17-.68.25l-.46.2c-.17.08-.18.09-.26.23a.08.08,0,0,0,0,0l-.06.08-.05.1c-.05.07-.13,0-.08-.06a.36.36,0,0,1,.07-.1s0,0,0-.05l0,0,0-.07-.09,0c-.31.14-.62.3-.92.47a.18.18,0,0,0-.07.08.27.27,0,0,1-.19.11.09.09,0,0,1-.1,0c0-.06,0-.14.08-.17a12.51,12.51,0,0,1,1.26-.65c.16-.07.16-.07.22-.17a.59.59,0,0,1,0-.08l.17-.27.42-.66c.16-.26.31-.53.45-.8a4.42,4.42,0,0,0,.33-.73.51.51,0,0,0,0-.45q-.11-.1-.36,0a2.37,2.37,0,0,0-.55.25,3.42,3.42,0,0,0-.51.39.83.83,0,0,0-.27.34.09.09,0,0,0,0,.06h0c0,.12-.1.2-.14.1A.36.36,0,0,1,9.51,10.83Z"/><path class="cls-6" d="M13.21,12.62a2.34,2.34,0,0,1,.37-.77,5.67,5.67,0,0,1,.69-.82,6.4,6.4,0,0,1,.85-.71A3.45,3.45,0,0,1,16,9.88a1.22,1.22,0,0,1,.77,0,.81.81,0,0,1,.5.52,1.58,1.58,0,0,1,.06,1,2.62,2.62,0,0,1-.45.92,4.79,4.79,0,0,1-.77.79,5.72,5.72,0,0,1-.92.59,3.33,3.33,0,0,1-.88.31,1,1,0,0,1-.67,0,.5.5,0,0,1-.27-.47v-.09s0,0,0-.05l0-.06A.68.68,0,0,1,13.21,12.62ZM16.6,10a1.54,1.54,0,0,0-.84.17,4.11,4.11,0,0,0-.94.6,6.07,6.07,0,0,0-.85.83,3.42,3.42,0,0,0-.54.85.77.77,0,0,0,0,.67c0,.08,0,0,.08,0l0,0A3.71,3.71,0,0,1,14,12.4a2.28,2.28,0,0,1,.59-.47q.13-.06.18,0s0,.09,0,.15-.09.06-.12,0l0,0s0,0,0,0h0a2.8,2.8,0,0,0-.51.44,2.54,2.54,0,0,0-.4.53.05.05,0,0,0,0,0c-.06.08-.07.12.06.15h0a1.26,1.26,0,0,0,.33.05c.09,0,.1.07,0,.08a1.3,1.3,0,0,1-.4,0h0c-.06,0-.07,0-.06.06a.39.39,0,0,0,.36.39,1.65,1.65,0,0,0,.81-.11,4.74,4.74,0,0,0,1-.52,4.93,4.93,0,0,0,.91-.8,2.84,2.84,0,0,0,.58-1,1.55,1.55,0,0,0,0-1A.67.67,0,0,0,16.6,10Z"/><path class="cls-7" d="M16.82,12a1.35,1.35,0,0,1,.28-.34c.13-.11.26-.22.39-.31l.28-.2h0c.09-.06.21-.15.39-.26l.58-.35a5.45,5.45,0,0,1,.64-.32,1.81,1.81,0,0,1,.55-.16.3.3,0,0,1,.32.14.89.89,0,0,1-.1.57,8.8,8.8,0,0,1-.44.85c-.18.31-.37.62-.56.91-.4.65-.71,1.15-.47,1a3.11,3.11,0,0,0,.53-.36l.51-.4.51-.44c.29-.26.6-.51.92-.76a3.82,3.82,0,0,1,.9-.57c.23-.1.38-.12.46-.07a.28.28,0,0,1,.1.28,2.41,2.41,0,0,1-.08.44l0,.1a.36.36,0,0,1,0,.1l-.12.54c-.05.21-.09.44-.13.67a4.82,4.82,0,0,0,0,.61c0,.17,0,.28.11.33a.3.3,0,0,0,.29-.08,2.07,2.07,0,0,0,.35-.32l.24-.27h0a16.42,16.42,0,0,0,1.18-1.62c.38-.57.73-1.13,1.07-1.69.06-.08.15,0,.11.07-.35.57-.71,1.15-1.1,1.73a17.52,17.52,0,0,1-1.23,1.64c-.14.17-.71.87-1,.69a.47.47,0,0,1-.15-.38,3.78,3.78,0,0,1,0-.65c0-.24.08-.48.12-.7s.1-.42.13-.56a.35.35,0,0,0,0-.12.74.74,0,0,1,0-.14,1.88,1.88,0,0,0,.06-.31.2.2,0,0,0-.05-.21c-.05,0-.16,0-.32.05a4,4,0,0,0-.86.54c-.3.24-.6.48-.89.74l-.59.5,0,0-.27.22c-.12.09-.25.19-.39.28a2.42,2.42,0,0,1-.37.21c-.11.05-.18.06-.22,0s.29-.75.72-1.45c.17-.27.33-.54.49-.81a6,6,0,0,0,.36-.71c.09-.21.12-.35.08-.44s-.12-.1-.27-.07a2.77,2.77,0,0,0-.51.19c-.2.1-.41.21-.61.33l-.56.34-.34.23-.22.15-.35.27a2.22,2.22,0,0,0-.31.28c-.08.09-.11.15-.08.19s.08,0,.17,0a1.33,1.33,0,0,0,.28-.1.63.63,0,0,0,.2-.09,0,0,0,0,0,0,0s0,0,0-.06.23.07.14.14-.65.41-.89.24A.17.17,0,0,1,16.82,12Z"/><path class="cls-8" d="M15.33,10.08V15H12V0h5.29a6.38,6.38,0,0,1,4.25,1.22A4.6,4.6,0,0,1,22.91,4.9a4.73,4.73,0,0,1-1.63,3.75,6.34,6.34,0,0,1-4.34,1.43Zm0-7.49V7.52h1.33a2.91,2.91,0,0,0,2-.62A2.43,2.43,0,0,0,19.36,5a2.33,2.33,0,0,0-.68-1.83,3,3,0,0,0-2-.61Z"/></g></g></svg>